<?xml version="1.0" encoding="UTF-8"?>
<mxfile host="app.diagrams.net" modified="2024-01-31T07:34:33.061Z" agent="Mozilla/5.0 (Windows NT 10.0; Win64; x64) AppleWebKit/537.36 (KHTML, like Gecko) Chrome/121.0.0.0 Safari/537.36 Edg/121.0.0.0" etag="PqsWTL5LqzYZ5PSaoMMI" version="23.0.2" type="browser">
  <diagram name="第 1 页" id="bzMS-q2DVjoTKAky5unl">
    <mxGraphModel dx="2832" dy="2012" grid="1" gridSize="10" guides="1" tooltips="1" connect="1" arrows="1" fold="1" page="1" pageScale="1" pageWidth="827" pageHeight="1169" math="0" shadow="0">
      <root>
        <mxCell id="0" />
        <mxCell id="1" parent="0" />
        <mxCell id="rnsMS2bOBL-lMLIJdkUg-383" value="" style="group" vertex="1" connectable="0" parent="1">
          <mxGeometry x="1220" y="183.00000000000023" width="1530" height="379.51" as="geometry" />
        </mxCell>
        <mxCell id="rnsMS2bOBL-lMLIJdkUg-460" value="" style="group" vertex="1" connectable="0" parent="rnsMS2bOBL-lMLIJdkUg-383">
          <mxGeometry x="-100" y="-4" width="1156" height="379.50884438323084" as="geometry" />
        </mxCell>
        <mxCell id="rnsMS2bOBL-lMLIJdkUg-444" value="" style="endArrow=classic;html=1;rounded=0;" edge="1" parent="rnsMS2bOBL-lMLIJdkUg-460">
          <mxGeometry width="50" height="50" relative="1" as="geometry">
            <mxPoint y="219" as="sourcePoint" />
            <mxPoint x="160" y="218.76" as="targetPoint" />
          </mxGeometry>
        </mxCell>
        <mxCell id="rnsMS2bOBL-lMLIJdkUg-449" value="&lt;font style=&quot;font-size: 29px;&quot; face=&quot;Times New Roman&quot;&gt;插入15&lt;/font&gt;" style="text;html=1;strokeColor=none;fillColor=none;align=center;verticalAlign=middle;whiteSpace=wrap;rounded=0;container=0;" vertex="1" parent="rnsMS2bOBL-lMLIJdkUg-460">
          <mxGeometry x="25.91093117408907" y="163" width="90.68825910931174" height="51.000000000000206" as="geometry" />
        </mxCell>
        <mxCell id="rnsMS2bOBL-lMLIJdkUg-327" value="&lt;font face=&quot;Times New Roman&quot;&gt;&lt;span style=&quot;font-size: 28px;&quot;&gt;2，6，7&amp;nbsp;&amp;nbsp;&lt;/span&gt;&lt;/font&gt;" style="rounded=0;whiteSpace=wrap;html=1;align=center;container=0;" vertex="1" parent="rnsMS2bOBL-lMLIJdkUg-460">
          <mxGeometry x="419.75" y="247" width="160" height="40" as="geometry" />
        </mxCell>
        <mxCell id="rnsMS2bOBL-lMLIJdkUg-328" value="" style="rounded=0;whiteSpace=wrap;html=1;rotation=90;container=0;" vertex="1" parent="rnsMS2bOBL-lMLIJdkUg-460">
          <mxGeometry x="475.5" y="335.44000000000005" width="61.25" height="26.88" as="geometry" />
        </mxCell>
        <mxCell id="rnsMS2bOBL-lMLIJdkUg-329" value="" style="endArrow=none;html=1;rounded=0;" edge="1" parent="rnsMS2bOBL-lMLIJdkUg-460">
          <mxGeometry width="50" height="50" relative="1" as="geometry">
            <mxPoint x="505.17999999999984" y="317" as="sourcePoint" />
            <mxPoint x="505.5" y="277" as="targetPoint" />
          </mxGeometry>
        </mxCell>
        <mxCell id="rnsMS2bOBL-lMLIJdkUg-330" value="" style="rounded=0;whiteSpace=wrap;html=1;rotation=90;container=0;" vertex="1" parent="rnsMS2bOBL-lMLIJdkUg-460">
          <mxGeometry x="419.75" y="335.44000000000005" width="61.25" height="26.88" as="geometry" />
        </mxCell>
        <mxCell id="rnsMS2bOBL-lMLIJdkUg-331" value="" style="endArrow=none;html=1;rounded=0;" edge="1" parent="rnsMS2bOBL-lMLIJdkUg-460">
          <mxGeometry width="50" height="50" relative="1" as="geometry">
            <mxPoint x="449.42999999999984" y="317" as="sourcePoint" />
            <mxPoint x="449.75" y="277" as="targetPoint" />
          </mxGeometry>
        </mxCell>
        <mxCell id="rnsMS2bOBL-lMLIJdkUg-332" value="" style="rounded=0;whiteSpace=wrap;html=1;rotation=90;container=0;" vertex="1" parent="rnsMS2bOBL-lMLIJdkUg-460">
          <mxGeometry x="528.5" y="335.44000000000005" width="61.25" height="26.88" as="geometry" />
        </mxCell>
        <mxCell id="rnsMS2bOBL-lMLIJdkUg-333" value="" style="endArrow=none;html=1;rounded=0;" edge="1" parent="rnsMS2bOBL-lMLIJdkUg-460">
          <mxGeometry width="50" height="50" relative="1" as="geometry">
            <mxPoint x="558.5" y="317" as="sourcePoint" />
            <mxPoint x="558.5" y="278" as="targetPoint" />
          </mxGeometry>
        </mxCell>
        <mxCell id="rnsMS2bOBL-lMLIJdkUg-357" value="&lt;font face=&quot;Times New Roman&quot;&gt;&lt;span style=&quot;font-size: 28px;&quot;&gt;1，5&amp;nbsp;&amp;nbsp;&lt;/span&gt;&lt;/font&gt;" style="rounded=0;whiteSpace=wrap;html=1;align=center;container=0;" vertex="1" parent="rnsMS2bOBL-lMLIJdkUg-460">
          <mxGeometry x="419.75" y="117" width="160" height="40" as="geometry" />
        </mxCell>
        <mxCell id="rnsMS2bOBL-lMLIJdkUg-358" value="&lt;font face=&quot;Times New Roman&quot;&gt;&lt;span style=&quot;font-size: 28px;&quot;&gt;2，11，14&amp;nbsp;&amp;nbsp;&lt;/span&gt;&lt;/font&gt;" style="rounded=0;whiteSpace=wrap;html=1;align=center;container=0;" vertex="1" parent="rnsMS2bOBL-lMLIJdkUg-460">
          <mxGeometry x="668.75" y="117" width="235.25" height="42" as="geometry" />
        </mxCell>
        <mxCell id="rnsMS2bOBL-lMLIJdkUg-359" value="" style="endArrow=none;html=1;rounded=0;exitX=0.5;exitY=0;exitDx=0;exitDy=0;" edge="1" parent="rnsMS2bOBL-lMLIJdkUg-460" source="rnsMS2bOBL-lMLIJdkUg-421">
          <mxGeometry width="50" height="50" relative="1" as="geometry">
            <mxPoint x="284.375" y="235" as="sourcePoint" />
            <mxPoint x="490.8636363636365" y="145" as="targetPoint" />
          </mxGeometry>
        </mxCell>
        <mxCell id="rnsMS2bOBL-lMLIJdkUg-360" value="" style="endArrow=none;html=1;rounded=0;exitX=0.5;exitY=0;exitDx=0;exitDy=0;entryX=0.75;entryY=1;entryDx=0;entryDy=0;" edge="1" parent="rnsMS2bOBL-lMLIJdkUg-460" source="rnsMS2bOBL-lMLIJdkUg-327">
          <mxGeometry width="50" height="50" relative="1" as="geometry">
            <mxPoint x="503.75" y="240" as="sourcePoint" />
            <mxPoint x="539.75" y="150" as="targetPoint" />
          </mxGeometry>
        </mxCell>
        <mxCell id="rnsMS2bOBL-lMLIJdkUg-362" value="" style="endArrow=none;html=1;rounded=0;exitX=0.5;exitY=0;exitDx=0;exitDy=0;entryX=0.25;entryY=1;entryDx=0;entryDy=0;" edge="1" source="rnsMS2bOBL-lMLIJdkUg-341" parent="rnsMS2bOBL-lMLIJdkUg-460">
          <mxGeometry width="50" height="50" relative="1" as="geometry">
            <mxPoint x="775" y="234" as="sourcePoint" />
            <mxPoint x="738.5625" y="146" as="targetPoint" />
          </mxGeometry>
        </mxCell>
        <mxCell id="rnsMS2bOBL-lMLIJdkUg-365" value="&lt;font face=&quot;Times New Roman&quot;&gt;&lt;span style=&quot;font-size: 29px;&quot;&gt;1，8&lt;/span&gt;&lt;/font&gt;" style="rounded=0;whiteSpace=wrap;html=1;align=center;container=0;" vertex="1" parent="rnsMS2bOBL-lMLIJdkUg-460">
          <mxGeometry x="547.75" width="160" height="40" as="geometry" />
        </mxCell>
        <mxCell id="rnsMS2bOBL-lMLIJdkUg-366" value="" style="endArrow=none;html=1;rounded=0;exitX=0.5;exitY=0;exitDx=0;exitDy=0;entryX=0.5;entryY=1;entryDx=0;entryDy=0;" edge="1" source="rnsMS2bOBL-lMLIJdkUg-357" parent="rnsMS2bOBL-lMLIJdkUg-460">
          <mxGeometry width="50" height="50" relative="1" as="geometry">
            <mxPoint x="551.75" y="107" as="sourcePoint" />
            <mxPoint x="623.75" y="30" as="targetPoint" />
          </mxGeometry>
        </mxCell>
        <mxCell id="rnsMS2bOBL-lMLIJdkUg-367" value="" style="endArrow=none;html=1;rounded=0;exitX=0.5;exitY=0;exitDx=0;exitDy=0;" edge="1" source="rnsMS2bOBL-lMLIJdkUg-358" parent="rnsMS2bOBL-lMLIJdkUg-460">
          <mxGeometry width="50" height="50" relative="1" as="geometry">
            <mxPoint x="825.3749999999995" y="104" as="sourcePoint" />
            <mxPoint x="668.497422680412" y="27" as="targetPoint" />
          </mxGeometry>
        </mxCell>
        <mxCell id="rnsMS2bOBL-lMLIJdkUg-382" value="" style="endArrow=none;html=1;rounded=0;exitX=0.5;exitY=0;exitDx=0;exitDy=0;" edge="1" source="rnsMS2bOBL-lMLIJdkUg-375" parent="rnsMS2bOBL-lMLIJdkUg-460">
          <mxGeometry width="50" height="50" relative="1" as="geometry">
            <mxPoint x="1194" y="235.00000000000023" as="sourcePoint" />
            <mxPoint x="881.0550458715593" y="146.99999999999977" as="targetPoint" />
          </mxGeometry>
        </mxCell>
        <mxCell id="rnsMS2bOBL-lMLIJdkUg-421" value="&lt;font face=&quot;Times New Roman&quot;&gt;&lt;span style=&quot;font-size: 28px;&quot;&gt;3，1 ，2 ，3&amp;nbsp;&amp;nbsp;&lt;/span&gt;&lt;/font&gt;" style="rounded=0;whiteSpace=wrap;html=1;align=center;container=0;" vertex="1" parent="rnsMS2bOBL-lMLIJdkUg-460">
          <mxGeometry x="161" y="246.99999999999977" width="220" height="40" as="geometry" />
        </mxCell>
        <mxCell id="rnsMS2bOBL-lMLIJdkUg-422" value="" style="rounded=0;whiteSpace=wrap;html=1;rotation=90;container=0;" vertex="1" parent="rnsMS2bOBL-lMLIJdkUg-460">
          <mxGeometry x="222.75" y="335.4399999999998" width="61.25" height="26.88" as="geometry" />
        </mxCell>
        <mxCell id="rnsMS2bOBL-lMLIJdkUg-423" value="" style="endArrow=none;html=1;rounded=0;" edge="1" parent="rnsMS2bOBL-lMLIJdkUg-460">
          <mxGeometry width="50" height="50" relative="1" as="geometry">
            <mxPoint x="252.42999999999984" y="316.9999999999998" as="sourcePoint" />
            <mxPoint x="252.75" y="276.9999999999998" as="targetPoint" />
          </mxGeometry>
        </mxCell>
        <mxCell id="rnsMS2bOBL-lMLIJdkUg-424" value="" style="rounded=0;whiteSpace=wrap;html=1;rotation=90;container=0;" vertex="1" parent="rnsMS2bOBL-lMLIJdkUg-460">
          <mxGeometry x="175.75" y="335.4399999999998" width="61.25" height="26.88" as="geometry" />
        </mxCell>
        <mxCell id="rnsMS2bOBL-lMLIJdkUg-425" value="" style="endArrow=none;html=1;rounded=0;" edge="1" parent="rnsMS2bOBL-lMLIJdkUg-460">
          <mxGeometry width="50" height="50" relative="1" as="geometry">
            <mxPoint x="205.42999999999984" y="316.9999999999998" as="sourcePoint" />
            <mxPoint x="205.75" y="276.9999999999998" as="targetPoint" />
          </mxGeometry>
        </mxCell>
        <mxCell id="rnsMS2bOBL-lMLIJdkUg-426" value="" style="rounded=0;whiteSpace=wrap;html=1;rotation=90;container=0;" vertex="1" parent="rnsMS2bOBL-lMLIJdkUg-460">
          <mxGeometry x="273.75" y="335.4399999999998" width="61.25" height="26.88" as="geometry" />
        </mxCell>
        <mxCell id="rnsMS2bOBL-lMLIJdkUg-427" value="" style="endArrow=none;html=1;rounded=0;" edge="1" parent="rnsMS2bOBL-lMLIJdkUg-460">
          <mxGeometry width="50" height="50" relative="1" as="geometry">
            <mxPoint x="303.75" y="316.9999999999998" as="sourcePoint" />
            <mxPoint x="303.75" y="277.9999999999998" as="targetPoint" />
          </mxGeometry>
        </mxCell>
        <mxCell id="rnsMS2bOBL-lMLIJdkUg-428" value="" style="rounded=0;whiteSpace=wrap;html=1;rotation=90;container=0;" vertex="1" parent="rnsMS2bOBL-lMLIJdkUg-460">
          <mxGeometry x="330" y="335.4399999999998" width="61.25" height="26.88" as="geometry" />
        </mxCell>
        <mxCell id="rnsMS2bOBL-lMLIJdkUg-429" value="" style="endArrow=none;html=1;rounded=0;" edge="1" parent="rnsMS2bOBL-lMLIJdkUg-460">
          <mxGeometry width="50" height="50" relative="1" as="geometry">
            <mxPoint x="359.75" y="316.9999999999998" as="sourcePoint" />
            <mxPoint x="359.67999999999984" y="278.9999999999998" as="targetPoint" />
          </mxGeometry>
        </mxCell>
        <mxCell id="rnsMS2bOBL-lMLIJdkUg-441" value="" style="endArrow=none;html=1;rounded=0;entryX=0.5;entryY=0;entryDx=0;entryDy=0;exitX=0.5;exitY=1;exitDx=0;exitDy=0;" edge="1" parent="rnsMS2bOBL-lMLIJdkUg-460" target="rnsMS2bOBL-lMLIJdkUg-433">
          <mxGeometry width="50" height="50" relative="1" as="geometry">
            <mxPoint x="788.375" y="148" as="sourcePoint" />
            <mxPoint x="961" y="236" as="targetPoint" />
          </mxGeometry>
        </mxCell>
        <mxCell id="rnsMS2bOBL-lMLIJdkUg-341" value="&lt;font face=&quot;Times New Roman&quot;&gt;&lt;span style=&quot;font-size: 28px;&quot;&gt;2，9，10&amp;nbsp;&amp;nbsp;&lt;/span&gt;&lt;/font&gt;" style="rounded=0;whiteSpace=wrap;html=1;align=center;container=0;" vertex="1" parent="rnsMS2bOBL-lMLIJdkUg-460">
          <mxGeometry x="620" y="247" width="160" height="40.00150937700462" as="geometry" />
        </mxCell>
        <mxCell id="rnsMS2bOBL-lMLIJdkUg-342" value="" style="rounded=0;whiteSpace=wrap;html=1;rotation=90;container=0;" vertex="1" parent="rnsMS2bOBL-lMLIJdkUg-460">
          <mxGeometry x="676.75" y="335.44333723255727" width="61.25" height="26.881014301347108" as="geometry" />
        </mxCell>
        <mxCell id="rnsMS2bOBL-lMLIJdkUg-343" value="" style="endArrow=none;html=1;rounded=0;" edge="1" parent="rnsMS2bOBL-lMLIJdkUg-460">
          <mxGeometry width="50" height="50" relative="1" as="geometry">
            <mxPoint x="706.4299999999998" y="317.0026414097581" as="sourcePoint" />
            <mxPoint x="706.75" y="277.00113203275345" as="targetPoint" />
          </mxGeometry>
        </mxCell>
        <mxCell id="rnsMS2bOBL-lMLIJdkUg-344" value="" style="rounded=0;whiteSpace=wrap;html=1;rotation=90;container=0;" vertex="1" parent="rnsMS2bOBL-lMLIJdkUg-460">
          <mxGeometry x="620" y="335.44333723255727" width="61.25" height="26.881014301347108" as="geometry" />
        </mxCell>
        <mxCell id="rnsMS2bOBL-lMLIJdkUg-345" value="" style="endArrow=none;html=1;rounded=0;" edge="1" parent="rnsMS2bOBL-lMLIJdkUg-460">
          <mxGeometry width="50" height="50" relative="1" as="geometry">
            <mxPoint x="649.6799999999998" y="317.0026414097581" as="sourcePoint" />
            <mxPoint x="650" y="277.00113203275345" as="targetPoint" />
          </mxGeometry>
        </mxCell>
        <mxCell id="rnsMS2bOBL-lMLIJdkUg-346" value="" style="rounded=0;whiteSpace=wrap;html=1;rotation=90;container=0;" vertex="1" parent="rnsMS2bOBL-lMLIJdkUg-460">
          <mxGeometry x="728.75" y="335.44333723255727" width="61.25" height="26.881014301347108" as="geometry" />
        </mxCell>
        <mxCell id="rnsMS2bOBL-lMLIJdkUg-347" value="" style="endArrow=none;html=1;rounded=0;" edge="1" parent="rnsMS2bOBL-lMLIJdkUg-460">
          <mxGeometry width="50" height="50" relative="1" as="geometry">
            <mxPoint x="758.75" y="317.0026414097581" as="sourcePoint" />
            <mxPoint x="758.75" y="278.00116976717857" as="targetPoint" />
          </mxGeometry>
        </mxCell>
        <mxCell id="rnsMS2bOBL-lMLIJdkUg-433" value="&lt;font face=&quot;Times New Roman&quot;&gt;&lt;span style=&quot;font-size: 28px;&quot;&gt;1，12&amp;nbsp;&amp;nbsp;&lt;/span&gt;&lt;/font&gt;" style="rounded=0;whiteSpace=wrap;html=1;align=center;container=0;" vertex="1" parent="rnsMS2bOBL-lMLIJdkUg-460">
          <mxGeometry x="820" y="247" width="130" height="39.09474891364751" as="geometry" />
        </mxCell>
        <mxCell id="rnsMS2bOBL-lMLIJdkUg-434" value="" style="rounded=0;whiteSpace=wrap;html=1;rotation=90;container=0;" vertex="1" parent="rnsMS2bOBL-lMLIJdkUg-460">
          <mxGeometry x="833.75" y="333.44175155479695" width="61.25" height="26.27266261638332" as="geometry" />
        </mxCell>
        <mxCell id="rnsMS2bOBL-lMLIJdkUg-435" value="" style="endArrow=none;html=1;rounded=0;" edge="1" parent="rnsMS2bOBL-lMLIJdkUg-460">
          <mxGeometry width="50" height="50" relative="1" as="geometry">
            <mxPoint x="863.4299999999998" y="315.4183922301649" as="sourcePoint" />
            <mxPoint x="863.75" y="276.32216809864207" as="targetPoint" />
          </mxGeometry>
        </mxCell>
        <mxCell id="rnsMS2bOBL-lMLIJdkUg-438" value="" style="rounded=0;whiteSpace=wrap;html=1;rotation=90;container=0;" vertex="1" parent="rnsMS2bOBL-lMLIJdkUg-460">
          <mxGeometry x="885.75" y="333.44175155479695" width="61.25" height="26.27266261638332" as="geometry" />
        </mxCell>
        <mxCell id="rnsMS2bOBL-lMLIJdkUg-439" value="" style="endArrow=none;html=1;rounded=0;" edge="1" parent="rnsMS2bOBL-lMLIJdkUg-460">
          <mxGeometry width="50" height="50" relative="1" as="geometry">
            <mxPoint x="915.75" y="315.4183922301649" as="sourcePoint" />
            <mxPoint x="915.75" y="277.29957370193017" as="targetPoint" />
          </mxGeometry>
        </mxCell>
        <mxCell id="rnsMS2bOBL-lMLIJdkUg-375" value="&lt;font face=&quot;Times New Roman&quot;&gt;&lt;span style=&quot;font-size: 28px;&quot;&gt;2，15，16&amp;nbsp;&amp;nbsp;&lt;/span&gt;&lt;/font&gt;" style="rounded=0;whiteSpace=wrap;html=1;align=center;container=0;" vertex="1" parent="rnsMS2bOBL-lMLIJdkUg-460">
          <mxGeometry x="986" y="246" width="160" height="40" as="geometry" />
        </mxCell>
        <mxCell id="rnsMS2bOBL-lMLIJdkUg-376" value="" style="rounded=0;whiteSpace=wrap;html=1;rotation=90;container=0;" vertex="1" parent="rnsMS2bOBL-lMLIJdkUg-460">
          <mxGeometry x="1042.75" y="334.44000000000005" width="61.25" height="26.88" as="geometry" />
        </mxCell>
        <mxCell id="rnsMS2bOBL-lMLIJdkUg-377" value="" style="endArrow=none;html=1;rounded=0;" edge="1" parent="rnsMS2bOBL-lMLIJdkUg-460">
          <mxGeometry width="50" height="50" relative="1" as="geometry">
            <mxPoint x="1072.4299999999998" y="316" as="sourcePoint" />
            <mxPoint x="1072.75" y="276" as="targetPoint" />
          </mxGeometry>
        </mxCell>
        <mxCell id="rnsMS2bOBL-lMLIJdkUg-378" value="" style="rounded=0;whiteSpace=wrap;html=1;rotation=90;container=0;" vertex="1" parent="rnsMS2bOBL-lMLIJdkUg-460">
          <mxGeometry x="986" y="334.44000000000005" width="61.25" height="26.88" as="geometry" />
        </mxCell>
        <mxCell id="rnsMS2bOBL-lMLIJdkUg-379" value="" style="endArrow=none;html=1;rounded=0;" edge="1" parent="rnsMS2bOBL-lMLIJdkUg-460">
          <mxGeometry width="50" height="50" relative="1" as="geometry">
            <mxPoint x="1015.6799999999998" y="316" as="sourcePoint" />
            <mxPoint x="1016" y="276" as="targetPoint" />
          </mxGeometry>
        </mxCell>
        <mxCell id="rnsMS2bOBL-lMLIJdkUg-380" value="" style="rounded=0;whiteSpace=wrap;html=1;rotation=90;container=0;" vertex="1" parent="rnsMS2bOBL-lMLIJdkUg-460">
          <mxGeometry x="1094.75" y="334.44000000000005" width="61.25" height="26.88" as="geometry" />
        </mxCell>
        <mxCell id="rnsMS2bOBL-lMLIJdkUg-381" value="" style="endArrow=none;html=1;rounded=0;" edge="1" parent="rnsMS2bOBL-lMLIJdkUg-460">
          <mxGeometry width="50" height="50" relative="1" as="geometry">
            <mxPoint x="1124.75" y="316" as="sourcePoint" />
            <mxPoint x="1124.75" y="277" as="targetPoint" />
          </mxGeometry>
        </mxCell>
        <mxCell id="rnsMS2bOBL-lMLIJdkUg-452" value="&lt;span style=&quot;font-size: 28px;&quot;&gt;&lt;font face=&quot;Times New Roman&quot;&gt;（b）&lt;/font&gt;&lt;/span&gt;" style="text;html=1;strokeColor=none;fillColor=none;align=center;verticalAlign=middle;whiteSpace=wrap;rounded=0;container=0;" vertex="1" parent="1">
          <mxGeometry x="1721" y="635" width="60" height="30" as="geometry" />
        </mxCell>
        <mxCell id="rnsMS2bOBL-lMLIJdkUg-26" value="&lt;font face=&quot;Times New Roman&quot;&gt;&lt;span style=&quot;font-size: 28px;&quot;&gt;2，31，32&amp;nbsp;&amp;nbsp;&lt;/span&gt;&lt;/font&gt;" style="rounded=0;whiteSpace=wrap;html=1;align=center;container=0;" vertex="1" parent="1">
          <mxGeometry x="494.5" y="422.0000000000002" width="160" height="40" as="geometry" />
        </mxCell>
        <mxCell id="rnsMS2bOBL-lMLIJdkUg-27" value="" style="rounded=0;whiteSpace=wrap;html=1;rotation=90;container=0;" vertex="1" parent="1">
          <mxGeometry x="551.25" y="510.4400000000003" width="61.25" height="26.88" as="geometry" />
        </mxCell>
        <mxCell id="rnsMS2bOBL-lMLIJdkUg-28" value="" style="endArrow=none;html=1;rounded=0;" edge="1" parent="1">
          <mxGeometry width="50" height="50" relative="1" as="geometry">
            <mxPoint x="580.9299999999998" y="492.0000000000002" as="sourcePoint" />
            <mxPoint x="581.25" y="452.0000000000002" as="targetPoint" />
          </mxGeometry>
        </mxCell>
        <mxCell id="rnsMS2bOBL-lMLIJdkUg-29" value="" style="rounded=0;whiteSpace=wrap;html=1;rotation=90;container=0;" vertex="1" parent="1">
          <mxGeometry x="494.5" y="510.4400000000003" width="61.25" height="26.88" as="geometry" />
        </mxCell>
        <mxCell id="rnsMS2bOBL-lMLIJdkUg-30" value="" style="endArrow=none;html=1;rounded=0;" edge="1" parent="1">
          <mxGeometry width="50" height="50" relative="1" as="geometry">
            <mxPoint x="524.1799999999998" y="492.0000000000002" as="sourcePoint" />
            <mxPoint x="524.5" y="452.0000000000002" as="targetPoint" />
          </mxGeometry>
        </mxCell>
        <mxCell id="rnsMS2bOBL-lMLIJdkUg-31" value="" style="rounded=0;whiteSpace=wrap;html=1;rotation=90;container=0;" vertex="1" parent="1">
          <mxGeometry x="603.25" y="510.4400000000003" width="61.25" height="26.88" as="geometry" />
        </mxCell>
        <mxCell id="rnsMS2bOBL-lMLIJdkUg-32" value="" style="endArrow=none;html=1;rounded=0;" edge="1" parent="1">
          <mxGeometry width="50" height="50" relative="1" as="geometry">
            <mxPoint x="633.25" y="492.0000000000002" as="sourcePoint" />
            <mxPoint x="633.25" y="453.0000000000002" as="targetPoint" />
          </mxGeometry>
        </mxCell>
        <mxCell id="rnsMS2bOBL-lMLIJdkUg-33" value="&lt;font face=&quot;Times New Roman&quot;&gt;&lt;span style=&quot;font-size: 28px;&quot;&gt;3，39，40，41&amp;nbsp;&amp;nbsp;&lt;/span&gt;&lt;/font&gt;" style="rounded=0;whiteSpace=wrap;html=1;align=center;container=0;" vertex="1" parent="1">
          <mxGeometry x="239" y="422.0000000000002" width="220" height="40" as="geometry" />
        </mxCell>
        <mxCell id="rnsMS2bOBL-lMLIJdkUg-34" value="" style="rounded=0;whiteSpace=wrap;html=1;rotation=90;container=0;" vertex="1" parent="1">
          <mxGeometry x="297.75" y="510.4400000000003" width="61.25" height="26.88" as="geometry" />
        </mxCell>
        <mxCell id="rnsMS2bOBL-lMLIJdkUg-35" value="" style="endArrow=none;html=1;rounded=0;" edge="1" parent="1">
          <mxGeometry width="50" height="50" relative="1" as="geometry">
            <mxPoint x="327.42999999999984" y="492.0000000000002" as="sourcePoint" />
            <mxPoint x="327.75" y="452.0000000000002" as="targetPoint" />
          </mxGeometry>
        </mxCell>
        <mxCell id="rnsMS2bOBL-lMLIJdkUg-36" value="" style="rounded=0;whiteSpace=wrap;html=1;rotation=90;container=0;" vertex="1" parent="1">
          <mxGeometry x="241.75" y="510.4400000000003" width="61.25" height="26.88" as="geometry" />
        </mxCell>
        <mxCell id="rnsMS2bOBL-lMLIJdkUg-37" value="" style="endArrow=none;html=1;rounded=0;" edge="1" parent="1">
          <mxGeometry width="50" height="50" relative="1" as="geometry">
            <mxPoint x="271.42999999999984" y="492.0000000000002" as="sourcePoint" />
            <mxPoint x="271.75" y="452.0000000000002" as="targetPoint" />
          </mxGeometry>
        </mxCell>
        <mxCell id="rnsMS2bOBL-lMLIJdkUg-38" value="" style="rounded=0;whiteSpace=wrap;html=1;rotation=90;container=0;" vertex="1" parent="1">
          <mxGeometry x="351.75" y="510.4400000000003" width="61.25" height="26.88" as="geometry" />
        </mxCell>
        <mxCell id="rnsMS2bOBL-lMLIJdkUg-39" value="" style="endArrow=none;html=1;rounded=0;" edge="1" parent="1">
          <mxGeometry width="50" height="50" relative="1" as="geometry">
            <mxPoint x="381.75" y="492.0000000000002" as="sourcePoint" />
            <mxPoint x="381.75" y="453.0000000000002" as="targetPoint" />
          </mxGeometry>
        </mxCell>
        <mxCell id="rnsMS2bOBL-lMLIJdkUg-40" value="" style="rounded=0;whiteSpace=wrap;html=1;rotation=90;container=0;" vertex="1" parent="1">
          <mxGeometry x="408" y="510.4400000000003" width="61.25" height="26.88" as="geometry" />
        </mxCell>
        <mxCell id="rnsMS2bOBL-lMLIJdkUg-41" value="" style="endArrow=none;html=1;rounded=0;" edge="1" parent="1">
          <mxGeometry width="50" height="50" relative="1" as="geometry">
            <mxPoint x="437.75" y="492.0000000000002" as="sourcePoint" />
            <mxPoint x="437.67999999999984" y="454.0000000000002" as="targetPoint" />
          </mxGeometry>
        </mxCell>
        <mxCell id="rnsMS2bOBL-lMLIJdkUg-43" value="&lt;font face=&quot;Times New Roman&quot;&gt;&lt;span style=&quot;font-size: 28px;&quot;&gt;3，5，8，11&amp;nbsp;&amp;nbsp;&lt;/span&gt;&lt;/font&gt;" style="rounded=0;whiteSpace=wrap;html=1;align=center;container=0;" vertex="1" parent="1">
          <mxGeometry x="523.75" y="292.0000000000002" width="235.25" height="42" as="geometry" />
        </mxCell>
        <mxCell id="rnsMS2bOBL-lMLIJdkUg-47" value="" style="endArrow=none;html=1;rounded=0;exitX=0.5;exitY=0;exitDx=0;exitDy=0;" edge="1" source="rnsMS2bOBL-lMLIJdkUg-26" parent="1">
          <mxGeometry width="50" height="50" relative="1" as="geometry">
            <mxPoint x="685" y="422.0000000000002" as="sourcePoint" />
            <mxPoint x="618" y="324.0000000000002" as="targetPoint" />
          </mxGeometry>
        </mxCell>
        <mxCell id="rnsMS2bOBL-lMLIJdkUg-48" value="" style="endArrow=none;html=1;rounded=0;exitX=0.5;exitY=0;exitDx=0;exitDy=0;" edge="1" source="rnsMS2bOBL-lMLIJdkUg-33" parent="1">
          <mxGeometry width="50" height="50" relative="1" as="geometry">
            <mxPoint x="363.5" y="422.0000000000002" as="sourcePoint" />
            <mxPoint x="579" y="321.0000000000002" as="targetPoint" />
          </mxGeometry>
        </mxCell>
        <mxCell id="rnsMS2bOBL-lMLIJdkUg-49" value="" style="endArrow=none;html=1;rounded=0;exitX=0.5;exitY=0;exitDx=0;exitDy=0;" edge="1" parent="1">
          <mxGeometry width="50" height="50" relative="1" as="geometry">
            <mxPoint x="817" y="422.0000000000002" as="sourcePoint" />
            <mxPoint x="661.75" y="322.0000000000002" as="targetPoint" />
          </mxGeometry>
        </mxCell>
        <mxCell id="rnsMS2bOBL-lMLIJdkUg-53" value="&lt;font face=&quot;Times New Roman&quot;&gt;&lt;span style=&quot;font-size: 28px;&quot;&gt;2，45，48&amp;nbsp;&amp;nbsp;&lt;/span&gt;&lt;/font&gt;" style="rounded=0;whiteSpace=wrap;html=1;align=center;container=0;" vertex="1" parent="1">
          <mxGeometry x="696" y="422.0000000000002" width="160" height="40" as="geometry" />
        </mxCell>
        <mxCell id="rnsMS2bOBL-lMLIJdkUg-54" value="" style="rounded=0;whiteSpace=wrap;html=1;rotation=90;container=0;" vertex="1" parent="1">
          <mxGeometry x="752.75" y="510.4400000000003" width="61.25" height="26.88" as="geometry" />
        </mxCell>
        <mxCell id="rnsMS2bOBL-lMLIJdkUg-55" value="" style="endArrow=none;html=1;rounded=0;" edge="1" parent="1">
          <mxGeometry width="50" height="50" relative="1" as="geometry">
            <mxPoint x="782.4299999999998" y="492.0000000000002" as="sourcePoint" />
            <mxPoint x="782.75" y="452.0000000000002" as="targetPoint" />
          </mxGeometry>
        </mxCell>
        <mxCell id="rnsMS2bOBL-lMLIJdkUg-56" value="" style="rounded=0;whiteSpace=wrap;html=1;rotation=90;container=0;" vertex="1" parent="1">
          <mxGeometry x="696" y="510.4400000000003" width="61.25" height="26.88" as="geometry" />
        </mxCell>
        <mxCell id="rnsMS2bOBL-lMLIJdkUg-57" value="" style="endArrow=none;html=1;rounded=0;" edge="1" parent="1">
          <mxGeometry width="50" height="50" relative="1" as="geometry">
            <mxPoint x="725.6799999999998" y="492.0000000000002" as="sourcePoint" />
            <mxPoint x="726" y="452.0000000000002" as="targetPoint" />
          </mxGeometry>
        </mxCell>
        <mxCell id="rnsMS2bOBL-lMLIJdkUg-58" value="" style="rounded=0;whiteSpace=wrap;html=1;rotation=90;container=0;" vertex="1" parent="1">
          <mxGeometry x="804.75" y="510.4400000000003" width="61.25" height="26.88" as="geometry" />
        </mxCell>
        <mxCell id="rnsMS2bOBL-lMLIJdkUg-59" value="" style="endArrow=none;html=1;rounded=0;" edge="1" parent="1">
          <mxGeometry width="50" height="50" relative="1" as="geometry">
            <mxPoint x="834.75" y="492.0000000000002" as="sourcePoint" />
            <mxPoint x="834.75" y="453.0000000000002" as="targetPoint" />
          </mxGeometry>
        </mxCell>
        <mxCell id="rnsMS2bOBL-lMLIJdkUg-67" value="" style="endArrow=none;html=1;rounded=0;exitX=0.5;exitY=0;exitDx=0;exitDy=0;" edge="1" source="rnsMS2bOBL-lMLIJdkUg-68" parent="1">
          <mxGeometry width="50" height="50" relative="1" as="geometry">
            <mxPoint x="1029" y="422.0000000000002" as="sourcePoint" />
            <mxPoint x="729" y="322" as="targetPoint" />
          </mxGeometry>
        </mxCell>
        <mxCell id="rnsMS2bOBL-lMLIJdkUg-68" value="&lt;font face=&quot;Times New Roman&quot;&gt;&lt;span style=&quot;font-size: 28px;&quot;&gt;3，12，14，16&amp;nbsp;&amp;nbsp;&lt;/span&gt;&lt;/font&gt;" style="rounded=0;whiteSpace=wrap;html=1;align=center;container=0;" vertex="1" parent="1">
          <mxGeometry x="889" y="422.0000000000002" width="220" height="40" as="geometry" />
        </mxCell>
        <mxCell id="rnsMS2bOBL-lMLIJdkUg-69" value="" style="rounded=0;whiteSpace=wrap;html=1;rotation=90;container=0;" vertex="1" parent="1">
          <mxGeometry x="947.75" y="510.4400000000003" width="61.25" height="26.88" as="geometry" />
        </mxCell>
        <mxCell id="rnsMS2bOBL-lMLIJdkUg-70" value="" style="endArrow=none;html=1;rounded=0;" edge="1" parent="1">
          <mxGeometry width="50" height="50" relative="1" as="geometry">
            <mxPoint x="977.4299999999998" y="492.0000000000002" as="sourcePoint" />
            <mxPoint x="977.75" y="452.0000000000002" as="targetPoint" />
          </mxGeometry>
        </mxCell>
        <mxCell id="rnsMS2bOBL-lMLIJdkUg-71" value="" style="rounded=0;whiteSpace=wrap;html=1;rotation=90;container=0;" vertex="1" parent="1">
          <mxGeometry x="891.75" y="510.4400000000003" width="61.25" height="26.88" as="geometry" />
        </mxCell>
        <mxCell id="rnsMS2bOBL-lMLIJdkUg-72" value="" style="endArrow=none;html=1;rounded=0;" edge="1" parent="1">
          <mxGeometry width="50" height="50" relative="1" as="geometry">
            <mxPoint x="921.4299999999998" y="492.0000000000002" as="sourcePoint" />
            <mxPoint x="921.75" y="452.0000000000002" as="targetPoint" />
          </mxGeometry>
        </mxCell>
        <mxCell id="rnsMS2bOBL-lMLIJdkUg-73" value="" style="rounded=0;whiteSpace=wrap;html=1;rotation=90;container=0;" vertex="1" parent="1">
          <mxGeometry x="1001.75" y="510.4400000000003" width="61.25" height="26.88" as="geometry" />
        </mxCell>
        <mxCell id="rnsMS2bOBL-lMLIJdkUg-74" value="" style="endArrow=none;html=1;rounded=0;" edge="1" parent="1">
          <mxGeometry width="50" height="50" relative="1" as="geometry">
            <mxPoint x="1031.75" y="492.0000000000002" as="sourcePoint" />
            <mxPoint x="1031.75" y="453.0000000000002" as="targetPoint" />
          </mxGeometry>
        </mxCell>
        <mxCell id="rnsMS2bOBL-lMLIJdkUg-75" value="" style="rounded=0;whiteSpace=wrap;html=1;rotation=90;container=0;" vertex="1" parent="1">
          <mxGeometry x="1058" y="510.4400000000003" width="61.25" height="26.88" as="geometry" />
        </mxCell>
        <mxCell id="rnsMS2bOBL-lMLIJdkUg-76" value="" style="endArrow=none;html=1;rounded=0;" edge="1" parent="1">
          <mxGeometry width="50" height="50" relative="1" as="geometry">
            <mxPoint x="1087.75" y="492.0000000000002" as="sourcePoint" />
            <mxPoint x="1087.6799999999998" y="454.0000000000002" as="targetPoint" />
          </mxGeometry>
        </mxCell>
        <mxCell id="rnsMS2bOBL-lMLIJdkUg-451" value="&lt;span style=&quot;font-size: 28px;&quot;&gt;&lt;font face=&quot;Times New Roman&quot;&gt;（a）&lt;/font&gt;&lt;/span&gt;" style="text;html=1;strokeColor=none;fillColor=none;align=center;verticalAlign=middle;whiteSpace=wrap;rounded=0;container=0;" vertex="1" parent="1">
          <mxGeometry x="611.38" y="639" width="60" height="30" as="geometry" />
        </mxCell>
      </root>
    </mxGraphModel>
  </diagram>
</mxfile>
